<?xml version="1.0" standalone="no"?>
<!DOCTYPE svg PUBLIC "-//W3C//DTD SVG 20010904//EN"
 "http://www.w3.org/TR/2001/REC-SVG-20010904/DTD/svg10.dtd">
<svg version="1.0" xmlns="http://www.w3.org/2000/svg"
 width="340.000000pt" height="340.000000pt" viewBox="0 0 340.000000 340.000000"
 preserveAspectRatio="xMidYMid meet">
<metadata>
Created by potrace 1.14, written by Peter Selinger 2001-2017
</metadata>
<g transform="translate(0.000000,340.000000) scale(0.100000,-0.100000)"
fill="#000000" stroke="none">
<path d="M0 1700 l0 -1700 1700 0 1700 0 0 1700 0 1700 -1700 0 -1700 0 0
-1700z m2780 1455 c51 -26 60 -65 60 -250 0 -187 -8 -217 -63 -250 -41 -25
-124 -26 -160 -2 -53 35 -61 60 -65 204 -5 173 2 235 35 273 41 50 124 60 193
25z m-320 -10 c0 -25 0 -25 -95 -25 l-95 0 0 -69 0 -68 52 5 c101 10 158 -54
158 -177 0 -103 -41 -163 -120 -176 -56 -9 -121 21 -143 68 -27 55 -23 77 13
77 24 0 30 -4 30 -20 0 -54 88 -91 125 -53 56 56 43 199 -20 223 -40 15 -95
-15 -95 -52 0 -13 -8 -18 -30 -18 l-30 0 0 155 0 155 125 0 125 0 0 -25z
m-1001 -340 c51 -7 94 -15 96 -17 1 -2 -10 -93 -26 -203 -15 -110 -28 -202
-29 -205 -1 -15 493 37 727 75 81 13 149 23 150 21 6 -6 45 -197 41 -201 -13
-14 -601 -86 -815 -101 -56 -4 -106 -10 -113 -14 -12 -8 -30 -150 -30 -249 0
-61 1 -63 23 -57 56 16 220 36 295 36 57 0 84 4 87 13 3 6 12 43 19 80 8 38
17 71 19 74 5 4 133 -11 186 -23 22 -5 23 -8 18 -57 -3 -29 -9 -66 -12 -83
l-7 -31 72 -18 c223 -55 447 -231 544 -428 53 -109 69 -179 68 -307 0 -172
-60 -321 -180 -451 -146 -158 -333 -241 -638 -283 l-41 -6 -41 94 c-23 51 -44
100 -47 108 -5 13 6 17 62 22 255 25 421 93 540 219 118 124 153 295 94 460
-56 162 -222 306 -415 362 -61 18 -86 15 -86 -10 0 -31 -102 -291 -161 -408
-59 -119 -126 -230 -180 -298 -16 -20 -29 -43 -29 -51 0 -8 18 -45 41 -82 22
-37 39 -69 37 -70 -2 -2 -42 -30 -90 -64 l-86 -61 -38 55 c-20 30 -39 54 -41
54 -1 0 -23 -16 -49 -35 -119 -91 -268 -157 -386 -171 -149 -17 -304 51 -378
165 -87 136 -81 388 15 586 93 195 286 385 502 497 l61 32 6 116 c4 63 9 148
12 189 l5 74 -224 -8 -225 -7 -16 89 c-9 48 -16 96 -16 106 0 16 16 17 198 17
108 0 220 3 248 6 l51 6 6 63 c12 129 60 395 71 395 6 0 53 -7 105 -15z"/>
<path d="M2644 3096 c-26 -22 -28 -29 -32 -120 -2 -53 -1 -96 2 -96 4 0 43 28
88 62 l80 63 -5 40 c-10 72 -79 98 -133 51z"/>
<path d="M2692 2864 c-79 -63 -83 -68 -77 -98 13 -63 83 -95 132 -61 27 19 35
58 31 152 l-3 73 -83 -66z"/>
<path d="M1665 1664 c-11 -2 -57 -11 -103 -20 -45 -9 -85 -20 -87 -25 -18 -27
48 -446 74 -472 20 -20 158 250 216 422 l34 101 -57 -1 c-31 -1 -66 -3 -77 -5z"/>
<path d="M1185 1502 c-78 -46 -222 -190 -267 -268 -66 -112 -83 -175 -83 -299
0 -119 10 -154 55 -187 42 -30 80 -36 150 -22 90 19 214 82 283 146 l58 53
-16 38 c-25 61 -72 270 -96 427 -11 80 -22 145 -23 146 0 1 -28 -15 -61 -34z"/>
</g>
</svg>
